<svg width="34" height="34" viewBox="0 0 34 34" fill="none" xmlns="http://www.w3.org/2000/svg">
<path d="M13.4119 17.384C12.3589 17.3827 11.3494 16.9638 10.6048 16.2192C9.86016 15.4745 9.44126 14.465 9.43994 13.412C9.43994 13.0169 9.28301 12.6381 9.00367 12.3587C8.72434 12.0794 8.34548 11.9225 7.95044 11.9225C7.5554 11.9225 7.17654 12.0794 6.8972 12.3587C6.61787 12.6381 6.46094 13.0169 6.46094 13.412C6.46305 15.2549 7.19607 17.0216 8.49918 18.3247C9.80228 19.6279 11.5691 20.3609 13.4119 20.363C13.807 20.363 14.1858 20.2061 14.4652 19.9267C14.7445 19.6474 14.9014 19.2685 14.9014 18.8735C14.9014 18.4784 14.7445 18.0996 14.4652 17.8203C14.1858 17.5409 13.807 17.384 13.4119 17.384V17.384Z" fill="#D1D1D1"/>
<path d="M33.3311 31.225L23.1751 21.069C25.1294 18.5779 26.0591 15.4348 25.7742 12.2814C25.4893 9.1281 24.0113 6.20247 21.6421 4.10209C19.2729 2.0017 16.1912 0.885014 13.0265 0.980097C9.86172 1.07518 6.85265 2.37486 4.61381 4.61369C2.37498 6.85252 1.0753 9.8616 0.980219 13.0264C0.885136 16.1911 2.00182 19.2728 4.10221 21.642C6.2026 24.0112 9.12822 25.4892 12.2816 25.7741C15.4349 26.059 18.5781 25.1293 21.0691 23.175L31.2251 33.331C31.5044 33.6102 31.8831 33.7671 32.2781 33.7671C32.673 33.7671 33.0518 33.6102 33.3311 33.331C33.6104 33.0517 33.7673 32.6729 33.7673 32.278C33.7673 31.883 33.6104 31.5042 33.3311 31.225V31.225ZM3.97909 13.412C3.97909 11.5461 4.53238 9.72213 5.569 8.17071C6.60562 6.6193 8.07901 5.41012 9.80285 4.69608C11.5267 3.98205 13.4236 3.79522 15.2536 4.15924C17.0836 4.52325 18.7646 5.42175 20.0839 6.74112C21.4033 8.06049 22.3018 9.74146 22.6658 11.5715C23.0298 13.4015 22.843 15.2984 22.129 17.0222C21.4149 18.746 20.2057 20.2194 18.6543 21.256C17.1029 22.2927 15.279 22.846 13.4131 22.846C10.9118 22.8433 8.51381 21.8485 6.74516 20.0799C4.97652 18.3112 3.98173 15.9132 3.97909 13.412V13.412Z" fill="#D1D1D1"/>
</svg>
